External Loads File
version=1
nRows=30
nColumns=13
Range=5.000000e-03-10 seconds
endheader
time 	forceRightX 	forceRightY 	forceRightZ 	pointRightX 	pointRightY 	pointRightZ 	forceLeftX 	forceLeftY 	forceLeftZ 	pointLeftX 	pointLeftY 	pointLeftZ 		
2.505000 38.440889 1010.129746 -0.000000 0.411557 0.319620 -0.147921 -10.580158 -111.803967 -0.000000 0.116941 0.328506 -0.377795
2.510000 45.429141 1015.993602 -0.000000 0.411901 0.314305 -0.147956 -15.179167 -112.063625 -0.000000 0.117599 0.334538 -0.377861
2.515000 48.937348 1021.937556 -0.000000 0.412222 0.308835 -0.148109 -19.446556 -112.243866 -0.000000 0.118502 0.339370 -0.377959
2.520000 52.594473 1027.998201 -0.000000 0.412087 0.303531 -0.148536 -23.734776 -112.326973 -0.000000 0.119661 0.344275 -0.378052
2.525000 58.414322 1034.174028 -0.000000 0.412027 0.298065 -0.148596 -28.199004 -112.279683 -0.000000 0.121164 0.349523 -0.378364
2.530000 65.264892 1040.552679 -0.000000 0.411839 0.292762 -0.148794 -32.666405 -112.142921 -0.000000 0.122422 0.355199 -0.378301
2.535000 70.911006 1047.260850 -0.000000 0.411166 0.287350 -0.148467 -36.891597 -112.017478 -0.000000 0.124043 0.360178 -0.378465
2.540000 76.238204 1054.191819 -0.000000 0.410638 0.281963 -0.148506 -40.982768 -111.917468 -0.000000 0.125821 0.365026 -0.378588
2.545000 82.548094 1061.150921 -0.000000 0.409942 0.276622 -0.148560 -45.062407 -111.834248 -0.000000 0.127766 0.370042 -0.378690
2.550000 90.066219 1067.987742 -0.000000 0.408891 0.271230 -0.148705 -49.124274 -111.789791 -0.000000 0.129896 0.375108 -0.378788
2.555000 98.299582 1074.631208 -0.000000 0.407827 0.265794 -0.148761 -53.090667 -111.817702 -0.000000 0.132214 0.380216 -0.378982
2.560000 106.163824 1081.128056 -0.000000 0.406611 0.260571 -0.148809 -56.819805 -111.961613 -0.000000 0.134683 0.385286 -0.379168
2.565000 114.574867 1087.365131 -0.000000 0.405168 0.255355 -0.148841 -60.385456 -112.143631 -0.000000 0.137261 0.390403 -0.379261
2.570000 123.332280 1093.303676 -0.000000 0.403588 0.250074 -0.148906 -63.752992 -112.324555 -0.000000 0.140039 0.395465 -0.379452
2.575000 131.371581 1098.962246 -0.000000 0.401966 0.244926 -0.149274 -66.795562 -112.512016 -0.000000 0.142875 0.400508 -0.379581
2.580000 139.993846 1104.047844 -0.000000 0.400074 0.239772 -0.149291 -69.634149 -112.563783 -0.000000 0.145885 0.405613 -0.379725
2.585000 147.646312 1108.620732 -0.000000 0.398043 0.234824 -0.149404 -72.102963 -112.507844 -0.000000 0.149078 0.410578 -0.379825
2.590000 154.781544 1112.560492 -0.000000 0.395711 0.230016 -0.149460 -74.250232 -112.269547 -0.000000 0.152383 0.415410 -0.380123
2.595000 162.377996 1115.725007 -0.000000 0.393381 0.225107 -0.149506 -76.210634 -111.755965 -0.000000 0.155866 0.420431 -0.380139
2.600000 168.426671 1118.426653 -0.000000 0.390836 0.220435 -0.149626 -77.845239 -111.083649 -0.000000 0.159435 0.425180 -0.380286
2.605000 174.697490 1120.396799 -0.000000 0.387874 0.215911 -0.149301 -79.394586 -110.118085 -0.000000 0.163176 0.429921 -0.380368
2.610000 179.634490 1121.793992 -0.000000 0.385291 0.211348 -0.149822 -80.773223 -108.950116 -0.000000 0.167086 0.434687 -0.380517
2.615000 184.379842 1122.284459 -0.000000 0.382043 0.207085 -0.149517 -82.161883 -107.452772 -0.000000 0.171054 0.439253 -0.380571
2.620000 188.370849 1121.725612 -0.000000 0.378947 0.202722 -0.149602 -83.555056 -105.594219 -0.000000 0.175219 0.443753 -0.380677
2.625000 191.078189 1119.908250 -0.000000 0.375681 0.198674 -0.149724 -84.915443 -103.351228 -0.000000 0.179467 0.448111 -0.380807
2.630000 193.003698 1116.393065 -0.000000 0.372311 0.194775 -0.149819 -86.243767 -100.686665 -0.000000 0.183819 0.452420 -0.380864
2.635000 194.764550 1110.657887 -0.000000 0.368894 0.190816 -0.149803 -87.493120 -97.626986 -0.000000 0.188430 0.456594 -0.380926
2.640000 196.003122 1102.284995 -0.000000 0.365030 0.187088 -0.150416 -88.508830 -94.296144 -0.000000 0.193010 0.460551 -0.381043
2.645000 194.541203 1091.150057 -0.000000 0.361178 0.183577 -0.150678 -88.992634 -90.954158 -0.000000 0.197139 0.464407 -0.380554
2.650000 194.074043 1076.110411 -0.000000 0.357260 0.180212 -0.150715 -89.159036 -87.365890 -0.000000 0.201875 0.468215 -0.380668
